# xmcd
#
# Track frame offsets:
#	150
#	15247
#	30637
#	48614
#	66978
#	88413
#	108075
#	121931
#	140248
#	160473
#	176589
#	196072
#	211422
#	226103
#	243326
#	261510
#
# Disc length: 3878 seconds
#
# Revision: 0
# Processed by: cddbd v1.4PL0 Copyright (c) Steve Scherf et al.
# Submitted via: dBpowerAMP V4.0
#
DISCID=e10f2410
DTITLE=Barry White - The Collection
DYEAR=1988
DGENRE=Blues
TTITLE0=You're the First, the Last, My Everything
TTITLE1=You See the Trouble with Me
TTITLE2=Can't Get Enough of Your Love Babe
TTITLE3=I'll Do for You Anything You Want Me To
TTITLE4=Just the Way You Are
TTITLE5=Walking in the Rain (With the One Love)
TTITLE6=It May Be Winter Outside (But in My Heart it's Spring)
TTITLE7=Love's Theme
TTITLE8=Sho' You Right
TTITLE9=What An I Gonna Do With You?
TTITLE10=Baby We Better Try and Get It Together
TTITLE11=Let the music Play
TTITLE12=Don't Make Me Wait too Long
TTITLE13=I'm Gonna Love You just a Little More Babe
TTITLE14=The Right Night
TTITLE15=Never Never Gonna Give You Up (12'' version)
EXTD=
EXTT0=
EXTT1=
EXTT2=
EXTT3=
EXTT4=
EXTT5=
EXTT6=
EXTT7=
EXTT8=
EXTT9=
EXTT10=
EXTT11=
EXTT12=
EXTT13=
EXTT14=
EXTT15=
PLAYORDER=
